<svg xmlns="http://www.w3.org/2000/svg" viewBox="0 0 512 512" role="img" aria-labelledby="title desc">
  <title id="title">Ours Uncle Sam des Andenne Bears</title>
  <desc id="desc">Illustration d'un ours en style Uncle Sam pointant vers le visiteur pour un poste a pourvoir.</desc>
  <defs>
    <linearGradient id="bg" x1="62" x2="450" y1="30" y2="482" gradientUnits="userSpaceOnUse">
      <stop stop-color="#050505" />
      <stop offset=".48" stop-color="#17130a" />
      <stop offset="1" stop-color="#7a0f12" />
    </linearGradient>
    <linearGradient id="gold" x1="120" x2="420" y1="60" y2="460" gradientUnits="userSpaceOnUse">
      <stop stop-color="#f8de55" />
      <stop offset="1" stop-color="#c39116" />
    </linearGradient>
    <filter id="shadow" x="-20%" y="-20%" width="140%" height="140%">
      <feDropShadow dx="0" dy="16" stdDeviation="16" flood-color="#050505" flood-opacity=".35" />
    </filter>
  </defs>

  <rect width="512" height="512" rx="44" fill="url(#bg)" />
  <path d="M-18 438 462-24h96L78 512h-96z" fill="#eecf2b" opacity=".92" />
  <path d="M54 510 512 68v118L184 512z" fill="#b51b22" opacity=".88" />
  <path d="M0 382 382 0h26L26 408zM104 512 512 104v24L128 512z" fill="#fff" opacity=".1" />

  <g filter="url(#shadow)">
    <path d="M166 244c-34-11-55-43-49-75 6-35 39-59 75-53 19-36 56-60 99-60 41 0 77 22 97 55 36-4 68 21 72 57 4 32-18 62-51 73 3 13 5 26 5 40 0 80-56 141-125 141s-125-61-125-141c0-13 1-25 2-37z" fill="#4a2a18" />
    <circle cx="184" cy="174" r="34" fill="#6b3d22" />
    <circle cx="398" cy="174" r="34" fill="#6b3d22" />
    <circle cx="184" cy="174" r="16" fill="#27130b" opacity=".75" />
    <circle cx="398" cy="174" r="16" fill="#27130b" opacity=".75" />

    <path d="M172 272c0-64 52-116 116-116s116 52 116 116-52 118-116 118-116-54-116-118z" fill="#7c4a29" />
    <path d="M218 307c0-38 31-68 70-68s70 30 70 68-31 67-70 67-70-30-70-67z" fill="#c48b5c" />
    <circle cx="248" cy="253" r="13" fill="#050505" />
    <circle cx="329" cy="253" r="13" fill="#050505" />
    <path d="M280 285c5-6 13-6 18 0 4 5 2 14-9 18-11-4-14-13-9-18z" fill="#050505" />
    <path d="M252 323c20 18 53 18 73 0" fill="none" stroke="#050505" stroke-linecap="round" stroke-width="10" />

    <path d="M204 80h168l-18 88H222z" fill="#f7f7f2" />
    <path d="M223 80h26v88h-26zM276 80h26v88h-26zM329 80h26v88h-26z" fill="#b51b22" />
    <path d="M194 58h188l-10 31H204z" fill="#0f234a" />
    <path d="M238 16h101l33 45H205z" fill="#0f234a" />
    <g fill="#f7f7f2">
      <path d="m255 36 5 10 11 2-8 8 2 11-10-5-10 5 2-11-8-8 11-2z" />
      <path d="m288 34 5 10 11 2-8 8 2 11-10-5-10 5 2-11-8-8 11-2z" />
      <path d="m321 36 5 10 11 2-8 8 2 11-10-5-10 5 2-11-8-8 11-2z" />
    </g>

    <path d="M280 382c-45 4-88 25-118 62h252c-30-37-88-66-134-62z" fill="#111827" />
    <path d="M206 414h166l18 52H188z" fill="#f7f7f2" />
    <path d="M229 414h22v52h-22zM282 414h22v52h-22zM335 414h22v52h-22z" fill="#b51b22" />
    <path d="M384 310c43 15 71 48 86 97l-59 14c-13-35-34-54-67-62z" fill="#7c4a29" />
    <path d="M437 397c-4 22-23 37-45 34l-8-1 7-55 8 1c22 3 38 21 38 21z" fill="#c48b5c" />
    <path d="M417 412 256 356" fill="none" stroke="#c48b5c" stroke-linecap="round" stroke-width="42" />
    <path d="m238 348 34-15 11 45z" fill="#c48b5c" />
  </g>

  <path d="M62 82c34-28 74-44 120-51M58 430c50 25 101 38 153 39M398 40c30 18 55 43 75 75" fill="none" stroke="url(#gold)" stroke-linecap="round" stroke-width="7" opacity=".72" />
  <text x="256" y="486" fill="#f7f7f2" font-family="Impact, Haettenschweiler, 'Arial Narrow Bold', sans-serif" font-size="54" letter-spacing="2" text-anchor="middle">YOU?</text>
</svg>
